# xmcd CD database file
#
# Track frame offsets:
#	150
#	37198
#	57241
#	86475
#	126669
#	154770
#	192155
#	226187
#
# Disc length: 3555 seconds
#
# Revision: 0
# Processed by: cddbd v1.5.2PL0 Copyright (c) Steve Scherf et al.
# Submitted via: CDex 1.51
#
DISCID=680de108
DTITLE=Fumio Miyashita - Awake
DYEAR=1999
DGENRE=New Age
TTITLE0=Rain Drops
TTITLE1=Under The Freedom
TTITLE2=Deep Water
TTITLE3=Sun Dance
TTITLE4=Church In Hands
TTITLE5=Wings Of Love
TTITLE6=The Garden
TTITLE7=Northern Lights
EXTD=YEAR: 1999
EXTT0=
EXTT1=
EXTT2=
EXTT3=
EXTT4=
EXTT5=
EXTT6=
EXTT7=
PLAYORDER=
